<svg width="87" height="41" viewBox="0 0 87 41" fill="none" xmlns="http://www.w3.org/2000/svg">
<g filter="url(#filter0_d_516_95)">
<rect x="4" width="79" height="33" rx="16.5" fill="url(#paint0_radial_516_95)" shape-rendering="crispEdges"/>
<path d="M26.56 21.112V25H23.8V21.112H16.6V19.096L23.32 7.792H26.56V18.856H28.648V21.112H26.56ZM23.8 18.856V11.224L19.216 18.856H23.8ZM41.7953 15.232C41.7953 16.704 41.6513 18.056 41.3633 19.288C41.0913 20.52 40.6593 21.576 40.0673 22.456C39.4753 23.336 38.7233 24.024 37.8113 24.52C36.8993 25 35.8113 25.24 34.5473 25.24C33.6993 25.24 32.9713 25.152 32.3633 24.976C31.7553 24.8 31.2193 24.568 30.7553 24.28V21.808C31.3153 22.176 31.9073 22.456 32.5313 22.648C33.1713 22.824 33.8033 22.912 34.4273 22.912C35.1153 22.912 35.7153 22.784 36.2273 22.528C36.7553 22.256 37.2033 21.88 37.5713 21.4C37.9393 20.92 38.2353 20.352 38.4593 19.696C38.6833 19.024 38.8353 18.28 38.9153 17.464C37.9873 18.6 36.7233 19.168 35.1233 19.168C34.4033 19.168 33.7233 19.056 33.0833 18.832C32.4593 18.592 31.9073 18.24 31.4273 17.776C30.9473 17.296 30.5633 16.704 30.2753 16C30.0033 15.28 29.8673 14.44 29.8673 13.48C29.8673 12.552 30.0193 11.72 30.3233 10.984C30.6433 10.248 31.0673 9.632 31.5953 9.136C32.1393 8.624 32.7633 8.232 33.4673 7.96C34.1873 7.688 34.9393 7.552 35.7233 7.552C37.7073 7.552 39.2113 8.192 40.2353 9.472C41.2753 10.736 41.7953 12.656 41.7953 15.232ZM35.7713 9.904C35.3713 9.904 34.9873 9.976 34.6193 10.12C34.2673 10.264 33.9553 10.488 33.6833 10.792C33.4113 11.08 33.1953 11.448 33.0353 11.896C32.8753 12.328 32.7953 12.84 32.7953 13.432C32.7953 14.008 32.8673 14.512 33.0113 14.944C33.1713 15.376 33.3793 15.736 33.6353 16.024C33.9073 16.312 34.2033 16.528 34.5233 16.672C34.8593 16.816 35.2113 16.888 35.5793 16.888C36.0113 16.888 36.4113 16.816 36.7793 16.672C37.1633 16.528 37.4993 16.312 37.7873 16.024C38.0753 15.736 38.2993 15.376 38.4593 14.944C38.6193 14.512 38.6993 14 38.6993 13.408C38.6993 12.304 38.4273 11.448 37.8833 10.84C37.3393 10.216 36.6353 9.904 35.7713 9.904ZM54.9906 15.232C54.9906 16.704 54.8466 18.056 54.5586 19.288C54.2866 20.52 53.8546 21.576 53.2626 22.456C52.6706 23.336 51.9186 24.024 51.0066 24.52C50.0946 25 49.0066 25.24 47.7426 25.24C46.8946 25.24 46.1666 25.152 45.5586 24.976C44.9506 24.8 44.4146 24.568 43.9506 24.28V21.808C44.5106 22.176 45.1026 22.456 45.7266 22.648C46.3666 22.824 46.9986 22.912 47.6226 22.912C48.3106 22.912 48.9106 22.784 49.4226 22.528C49.9506 22.256 50.3986 21.88 50.7666 21.4C51.1346 20.92 51.4306 20.352 51.6546 19.696C51.8786 19.024 52.0306 18.28 52.1106 17.464C51.1826 18.6 49.9186 19.168 48.3186 19.168C47.5986 19.168 46.9186 19.056 46.2786 18.832C45.6546 18.592 45.1026 18.24 44.6226 17.776C44.1426 17.296 43.7586 16.704 43.4706 16C43.1986 15.28 43.0626 14.44 43.0626 13.48C43.0626 12.552 43.2146 11.72 43.5186 10.984C43.8386 10.248 44.2626 9.632 44.7906 9.136C45.3346 8.624 45.9586 8.232 46.6626 7.96C47.3826 7.688 48.1346 7.552 48.9186 7.552C50.9026 7.552 52.4066 8.192 53.4306 9.472C54.4706 10.736 54.9906 12.656 54.9906 15.232ZM48.9666 9.904C48.5666 9.904 48.1826 9.976 47.8146 10.12C47.4626 10.264 47.1506 10.488 46.8786 10.792C46.6066 11.08 46.3906 11.448 46.2306 11.896C46.0706 12.328 45.9906 12.84 45.9906 13.432C45.9906 14.008 46.0626 14.512 46.2066 14.944C46.3666 15.376 46.5746 15.736 46.8306 16.024C47.1026 16.312 47.3986 16.528 47.7186 16.672C48.0546 16.816 48.4066 16.888 48.7746 16.888C49.2066 16.888 49.6066 16.816 49.9746 16.672C50.3586 16.528 50.6946 16.312 50.9826 16.024C51.2706 15.736 51.4946 15.376 51.6546 14.944C51.8146 14.512 51.8946 14 51.8946 13.408C51.8946 12.304 51.6226 11.448 51.0786 10.84C50.5346 10.216 49.8306 9.904 48.9666 9.904ZM59.6271 15.568V7.792H63.9951C65.7711 7.792 67.1791 8.2 68.2191 9.016C69.2751 9.816 69.8031 11.048 69.8031 12.712C69.8031 13.576 69.6591 14.312 69.3711 14.92C69.0831 15.528 68.6751 16.024 68.1471 16.408C67.6351 16.792 67.0111 17.08 66.2751 17.272C65.5391 17.448 64.7311 17.536 63.8511 17.536H62.5311V19.24H67.3551V21.208H62.5311V25H59.6271V21.208H57.8031V19.24H59.6271V17.536H57.8031V15.568H59.6271ZM62.5311 10.144V15.568H63.8751C65.8911 15.568 66.8991 14.624 66.8991 12.736C66.8991 11.824 66.6671 11.168 66.2031 10.768C65.7551 10.352 65.0191 10.144 63.9951 10.144H62.5311Z" fill="#2E2C21"/>
</g>
<defs>
<filter id="filter0_d_516_95" x="0" y="0" width="87" height="41" filterUnits="userSpaceOnUse" color-interpolation-filters="sRGB">
<feFlood flood-opacity="0" result="BackgroundImageFix"/>
<feColorMatrix in="SourceAlpha" type="matrix" values="0 0 0 0 0 0 0 0 0 0 0 0 0 0 0 0 0 0 127 0" result="hardAlpha"/>
<feOffset dy="4"/>
<feGaussianBlur stdDeviation="2"/>
<feComposite in2="hardAlpha" operator="out"/>
<feColorMatrix type="matrix" values="0 0 0 0 0 0 0 0 0 0 0 0 0 0 0 0 0 0 0.25 0"/>
<feBlend mode="normal" in2="BackgroundImageFix" result="effect1_dropShadow_516_95"/>
<feBlend mode="normal" in="SourceGraphic" in2="effect1_dropShadow_516_95" result="shape"/>
</filter>
<radialGradient id="paint0_radial_516_95" cx="0" cy="0" r="1" gradientUnits="userSpaceOnUse" gradientTransform="translate(83 -1.96695e-06) rotate(157.329) scale(85.6154 60.9002)">
<stop stop-color="#E0B8FF"/>
<stop offset="1" stop-color="#B6B9FF"/>
</radialGradient>
</defs>
</svg>
